<svg width="24" height="24" viewBox="0 0 24 24" fill="none" xmlns="http://www.w3.org/2000/svg">
<path d="M22.5333 24L13.7667 15.2333C13.1 15.8111 12.3222 16.2611 11.4333 16.5833C10.5444 16.9056 9.6 17.0667 8.6 17.0667C6.2 17.0667 4.16667 16.2333 2.5 14.5667C0.833333 12.9 0 10.8889 0 8.53333C0 6.17778 0.833333 4.16667 2.5 2.5C4.16667 0.833333 6.18889 0 8.56667 0C10.9222 0 12.9278 0.833333 14.5833 2.5C16.2389 4.16667 17.0667 6.17778 17.0667 8.53333C17.0667 9.48889 16.9111 10.4111 16.6 11.3C16.2889 12.1889 15.8222 13.0222 15.2 13.8L24 22.5333L22.5333 24ZM8.56667 15.0667C10.3667 15.0667 11.9 14.4278 13.1667 13.15C14.4333 11.8722 15.0667 10.3333 15.0667 8.53333C15.0667 6.73333 14.4333 5.19444 13.1667 3.91667C11.9 2.63889 10.3667 2 8.56667 2C6.74444 2 5.19444 2.63889 3.91667 3.91667C2.63889 5.19444 2 6.73333 2 8.53333C2 10.3333 2.63889 11.8722 3.91667 13.15C5.19444 14.4278 6.74444 15.0667 8.56667 15.0667Z" fill="black" fill-opacity="0.7"/>
</svg>
